<svg xmlns="http://www.w3.org/2000/svg" aria-hidden="true" style="position:absolute;width:0;height:0;overflow:hidden">
  <defs>
    <symbol id="icon-Blog-Image" viewBox="0 0 54 32">
      <path fill="#f4d04e" d="M1.6 0h50.56a1.6 1.6 0 0 1 1.6 1.6v28.8a1.6 1.6 0 0 1-1.6 1.6H1.6A1.6 1.6 0 0 1 0 30.4V1.6A1.6 1.6 0 0 1 1.6 0z" style="fill:var(--color1, #f4d04e)"/>
      <path fill="#fff" d="m19.453 6.983 4.978-4.978a7.6 7.6 0 1 1 10.748 10.748l-4.978 4.978A7.6 7.6 0 1 1 19.453 6.983z" style="fill:var(--color2, #fff)"/>
      <path fill="#111" d="m14.023 6.983 4.978-4.978a7.6 7.6 0 1 1 10.748 10.748l-4.978 4.978A7.6 7.6 0 1 1 14.023 6.983zM37.578 33.366 72.224-1.28 82.972 9.468 48.326 44.114 37.578 33.366z" style="fill:var(--color3, #111)"/>
      <path fill="#fff" d="m8.592 6.983 4.978-4.978a7.6 7.6 0 1 1 10.748 10.748l-4.978 4.978A7.6 7.6 0 1 1 8.592 6.983z" style="fill:var(--color2, #fff)"/>
      <path fill="#111" d="M-8.33 23.907c-6.379 6.379-6.379 16.722 0 23.101l7.508 7.508c6.379 6.379 16.722 6.379 23.101 0s6.379-16.722 0-23.101l-7.508-7.508c-6.379-6.379-16.722-6.379-23.101 0z" style="fill:var(--color3, #111)"/>
      <path fill="none" stroke="#fff" stroke-width=".48" d="m1.07-57.28 21.693 21.716a5.12 5.12 0 0 1 0 7.237L-7.288 1.756a5.12 5.12 0 0 0 0 7.237L17.133 33.44" style="stroke:var(--color2, #fff)"/>
      <path fill="none" stroke="#111" stroke-width=".48" d="M11.194 11.395v3.734h3.734M21.773 8.284V4.55H18.04M16.455 6.134v7.467M33.658-6.08l9.74 9.74c2 2 2 5.241 0 7.241L30.959 23.34a5.12 5.12 0 0 0 0 7.241l11.18 11.18" style="stroke:var(--color3, #111)"/>
      <path fill="none" stroke="#111" stroke-width=".48" d="m40.534 23.852-1.943 1.943 2.281 2.281v2.028H42.9l2.197 2.197 1.943-1.943M44.59 19.796l-1.943 1.943 2.281 2.281v2.028h2.028l2.197 2.197 1.943-1.943M48.645 15.741l-1.943 1.943 2.281 2.281v2.028h2.028l2.197 2.197 1.943-1.943M52.7 11.686l-1.943 1.943 2.281 2.281v2.028h2.028l2.197 2.197 1.943-1.943" style="stroke:var(--color3, #111)"/>
      <path fill="none" stroke="#fff" stroke-width=".48" d="m40.534 23.852-1.943 1.943 2.281 2.281v2.028H42.9l2.197 2.197 1.943-1.943M44.59 19.796l-1.943 1.943 2.281 2.281v2.028h2.028l2.197 2.197 1.943-1.943M48.645 15.741l-1.943 1.943 2.281 2.281v2.028h2.028l2.197 2.197 1.943-1.943M52.7 11.686l-1.943 1.943 2.281 2.281v2.028h2.028l2.197 2.197 1.943-1.943" style="stroke:var(--color2, #fff)"/>
    </symbol>
  </defs>
</svg>
